<?xml version="1.0" encoding="utf-8"?>
<!-- Generator: Adobe Illustrator 16.0.4, SVG Export Plug-In . SVG Version: 6.00 Build 0)  -->
<!DOCTYPE svg PUBLIC "-//W3C//DTD SVG 1.1//EN" "http://www.w3.org/Graphics/SVG/1.1/DTD/svg11.dtd">
<svg version="1.1" id="Layer_1" xmlns="http://www.w3.org/2000/svg" xmlns:xlink="http://www.w3.org/1999/xlink" x="0px" y="0px"
	 width="311.008px" height="37.335px" viewBox="0 0 311.008 37.335" enable-background="new 0 0 311.008 37.335"
	 xml:space="preserve">
<g enable-background="new    ">
	<path fill="#1C3664" d="M48.44,8.549c1.26-0.258,3.064-0.401,4.783-0.401c2.664,0,4.382,0.487,5.585,1.575
		c0.974,0.859,1.518,2.177,1.518,3.666c0,2.549-1.604,4.239-3.637,4.927v0.086c1.489,0.516,2.377,1.89,2.835,3.895
		c0.63,2.692,1.088,4.554,1.489,5.299h-2.578c-0.315-0.544-0.745-2.205-1.289-4.611c-0.573-2.663-1.604-3.666-3.866-3.752h-2.349
		v8.363H48.44V8.549z M50.932,17.342h2.549c2.664,0,4.354-1.461,4.354-3.666c0-2.492-1.804-3.58-4.439-3.609
		c-1.203,0-2.062,0.114-2.463,0.229V17.342z"/>
	<path fill="#1C3664" d="M70.805,27.595l-0.201-1.747h-0.086c-0.773,1.088-2.263,2.062-4.239,2.062
		c-2.807,0-4.239-1.977-4.239-3.981c0-3.351,2.979-5.184,8.334-5.155v-0.286c0-1.146-0.315-3.208-3.15-3.208
		c-1.289,0-2.635,0.401-3.609,1.031l-0.573-1.661c1.146-0.745,2.807-1.231,4.554-1.231c4.239,0,5.27,2.893,5.27,5.671v5.184
		c0,1.203,0.057,2.377,0.229,3.322H70.805z M70.432,20.521c-2.75-0.058-5.871,0.43-5.871,3.122c0,1.632,1.088,2.405,2.377,2.405
		c1.805,0,2.95-1.146,3.351-2.319c0.086-0.258,0.143-0.545,0.143-0.802V20.521z"/>
	<path fill="#1C3664" d="M87.929,7.26v16.755c0,1.231,0.029,2.635,0.115,3.58h-2.263l-0.115-2.406h-0.057
		c-0.773,1.547-2.463,2.722-4.726,2.722c-3.351,0-5.929-2.836-5.929-7.046c-0.029-4.611,2.835-7.446,6.215-7.446
		c2.12,0,3.552,1.002,4.182,2.119h0.057V7.26H87.929z M85.408,19.375c0-0.315-0.028-0.745-0.114-1.06
		c-0.373-1.604-1.747-2.922-3.637-2.922c-2.606,0-4.153,2.291-4.153,5.356c0,2.807,1.375,5.126,4.096,5.126
		c1.69,0,3.236-1.116,3.695-3.007c0.086-0.344,0.114-0.688,0.114-1.089V19.375z"/>
</g>
<g enable-background="new    ">
	<path fill="#1C3664" d="M93.081,9.838c0.029,0.858-0.602,1.546-1.604,1.546c-0.888,0-1.518-0.688-1.518-1.546
		c0-0.889,0.659-1.575,1.575-1.575C92.479,8.263,93.081,8.95,93.081,9.838z M90.274,27.595V13.733h2.521v13.862H90.274z"/>
</g>
<g enable-background="new    ">
	<path fill="#1C3664" d="M108.946,20.549c0,5.127-3.551,7.361-6.902,7.361c-3.752,0-6.645-2.75-6.645-7.132
		c0-4.64,3.036-7.36,6.874-7.36C106.254,13.418,108.946,16.311,108.946,20.549z M97.948,20.693c0,3.036,1.747,5.327,4.21,5.327
		c2.406,0,4.21-2.263,4.21-5.385c0-2.349-1.174-5.327-4.153-5.327S97.948,18.058,97.948,20.693z"/>
	<path fill="#1C3664" d="M111.148,7.26h2.521v20.335h-2.521V7.26z"/>
</g>
<g enable-background="new    ">
	<path fill="#1C3664" d="M129.133,20.549c0,5.127-3.551,7.361-6.902,7.361c-3.752,0-6.645-2.75-6.645-7.132
		c0-4.64,3.036-7.36,6.874-7.36C126.441,13.418,129.133,16.311,129.133,20.549z M118.135,20.693c0,3.036,1.747,5.327,4.21,5.327
		c2.406,0,4.21-2.263,4.21-5.385c0-2.349-1.174-5.327-4.153-5.327S118.135,18.058,118.135,20.693z"/>
</g>
<g enable-background="new    ">
	<path fill="#1C3664" d="M143.679,13.733c-0.058,1.003-0.115,2.119-0.115,3.81v8.048c0,3.179-0.63,5.127-1.976,6.33
		c-1.346,1.26-3.294,1.661-5.041,1.661c-1.661,0-3.494-0.401-4.611-1.146l0.63-1.919c0.917,0.573,2.349,1.089,4.067,1.089
		c2.578,0,4.468-1.346,4.468-4.841v-1.546h-0.057c-0.773,1.289-2.263,2.319-4.411,2.319c-3.437,0-5.9-2.921-5.9-6.759
		c0-4.697,3.064-7.36,6.244-7.36c2.406,0,3.723,1.26,4.325,2.405h0.057l0.115-2.091H143.679z M141.073,19.204
		c0-0.43-0.029-0.802-0.143-1.146c-0.458-1.461-1.69-2.664-3.523-2.664c-2.406,0-4.125,2.034-4.125,5.241
		c0,2.721,1.375,4.983,4.096,4.983c1.547,0,2.95-0.974,3.494-2.577c0.144-0.43,0.201-0.917,0.201-1.347V19.204z"/>
</g>
<g enable-background="new    ">
	<path fill="#1C3664" d="M149.404,9.838c0.029,0.858-0.602,1.546-1.604,1.546c-0.888,0-1.518-0.688-1.518-1.546
		c0-0.889,0.659-1.575,1.575-1.575C148.802,8.263,149.404,8.95,149.404,9.838z M146.597,27.595V13.733h2.521v13.862H146.597z"/>
</g>
<g enable-background="new    ">
	<path fill="#1C3664" d="M162.605,27.08c-0.658,0.344-2.119,0.802-3.98,0.802c-4.182,0-6.902-2.835-6.902-7.074
		c0-4.268,2.921-7.36,7.447-7.36c1.488,0,2.807,0.372,3.494,0.716l-0.574,1.947c-0.601-0.344-1.546-0.658-2.92-0.658
		c-3.18,0-4.898,2.349-4.898,5.241c0,3.208,2.062,5.184,4.812,5.184c1.432,0,2.377-0.372,3.092-0.688L162.605,27.08z"/>
</g>
<g enable-background="new    ">
	<path fill="#33669A" d="M171.616,18.323c0-1.351,0.198-2.618,0.597-3.805c0.398-1.186,0.975-2.216,1.728-3.091
		c0.753-0.874,1.68-1.562,2.779-2.064c1.099-0.502,2.341-0.753,3.728-0.753c1.09,0,2.033,0.143,2.83,0.429
		c0.797,0.285,1.468,0.641,2.014,1.064c0.545,0.425,0.99,0.888,1.337,1.39s0.61,0.974,0.792,1.415s0.308,0.823,0.377,1.143
		c0.068,0.321,0.104,0.498,0.104,0.533h-1.143c-0.121-0.779-0.373-1.477-0.753-2.091c-0.382-0.614-0.857-1.139-1.429-1.571
		s-1.207-0.762-1.908-0.987c-0.702-0.225-1.442-0.338-2.221-0.338c-1.213,0-2.295,0.234-3.247,0.701
		c-0.952,0.468-1.758,1.096-2.415,1.884c-0.658,0.788-1.16,1.71-1.507,2.766c-0.347,1.057-0.52,2.182-0.52,3.376
		c0,1.195,0.173,2.321,0.52,3.377c0.347,1.057,0.849,1.979,1.507,2.766c0.657,0.788,1.463,1.416,2.415,1.883
		c0.952,0.468,2.034,0.701,3.247,0.701c0.899,0,1.744-0.186,2.531-0.558c0.788-0.372,1.477-0.866,2.065-1.48s1.06-1.325,1.415-2.13
		c0.355-0.806,0.559-1.641,0.61-2.507h1.144c-0.104,1.108-0.377,2.13-0.818,3.065c-0.441,0.935-1.005,1.744-1.688,2.428
		c-0.685,0.685-1.477,1.217-2.376,1.598c-0.9,0.381-1.861,0.571-2.883,0.571c-1.387,0-2.629-0.251-3.728-0.753
		c-1.1-0.502-2.026-1.19-2.779-2.064c-0.753-0.875-1.329-1.905-1.728-3.091C171.814,20.942,171.616,19.673,171.616,18.323z"/>
</g>
<g enable-background="new    ">
	<path fill="#33669A" d="M190.317,20.92c0-0.952,0.134-1.848,0.403-2.688c0.268-0.839,0.662-1.579,1.182-2.221
		c0.52-0.64,1.159-1.146,1.922-1.519c0.762-0.372,1.636-0.559,2.623-0.559c0.986,0,1.861,0.187,2.623,0.559s1.402,0.879,1.922,1.519
		c0.52,0.642,0.913,1.382,1.182,2.221c0.268,0.841,0.402,1.736,0.402,2.688s-0.135,1.853-0.402,2.701
		c-0.269,0.849-0.662,1.589-1.182,2.221s-1.16,1.134-1.922,1.506s-1.637,0.559-2.623,0.559c-0.987,0-1.861-0.187-2.623-0.559
		c-0.763-0.372-1.402-0.874-1.922-1.506s-0.914-1.372-1.182-2.221C190.451,22.773,190.317,21.873,190.317,20.92z M191.305,20.92
		c0,0.797,0.112,1.562,0.338,2.299c0.225,0.735,0.553,1.39,0.986,1.961c0.433,0.571,0.97,1.025,1.61,1.363
		c0.64,0.338,1.376,0.506,2.208,0.506c0.83,0,1.566-0.168,2.207-0.506s1.178-0.792,1.61-1.363s0.762-1.226,0.987-1.961
		c0.225-0.736,0.338-1.502,0.338-2.299c0-0.796-0.113-1.562-0.338-2.299c-0.226-0.735-0.555-1.39-0.987-1.961
		s-0.97-1.025-1.61-1.363s-1.377-0.507-2.207-0.507c-0.832,0-1.568,0.169-2.208,0.507c-0.641,0.338-1.178,0.792-1.61,1.363
		c-0.434,0.571-0.762,1.226-0.986,1.961C191.417,19.358,191.305,20.125,191.305,20.92z"/>
</g>
<g enable-background="new    ">
	<path fill="#33669A" d="M204.912,14.246h0.987v2.727h0.052c0.104-0.415,0.286-0.809,0.546-1.182
		c0.259-0.372,0.575-0.696,0.948-0.974c0.371-0.276,0.787-0.493,1.246-0.649c0.459-0.155,0.939-0.233,1.441-0.233
		c0.641,0,1.195,0.082,1.662,0.246c0.468,0.165,0.865,0.382,1.195,0.649c0.328,0.269,0.588,0.571,0.779,0.909
		c0.189,0.338,0.32,0.68,0.389,1.026h0.053c0.398-0.936,0.93-1.641,1.597-2.117c0.667-0.476,1.546-0.714,2.636-0.714
		c0.606,0,1.165,0.091,1.676,0.272s0.952,0.459,1.324,0.831c0.373,0.373,0.662,0.844,0.871,1.416
		c0.207,0.571,0.311,1.246,0.311,2.025v9.116h-0.986v-9.143c0-0.848-0.13-1.515-0.39-1.999c-0.26-0.485-0.567-0.854-0.922-1.104
		c-0.355-0.251-0.71-0.406-1.065-0.467c-0.354-0.061-0.627-0.092-0.818-0.092c-0.605,0-1.164,0.104-1.674,0.312
		c-0.512,0.207-0.953,0.52-1.325,0.935c-0.372,0.416-0.663,0.931-0.87,1.545c-0.208,0.615-0.312,1.321-0.312,2.117v7.896h-0.987
		v-9.143c0-0.831-0.125-1.493-0.377-1.986c-0.25-0.493-0.545-0.861-0.883-1.104c-0.338-0.243-0.684-0.398-1.039-0.468
		c-0.354-0.069-0.636-0.104-0.844-0.104c-0.467,0-0.952,0.096-1.454,0.286c-0.503,0.19-0.962,0.485-1.377,0.883
		c-0.415,0.398-0.753,0.909-1.013,1.532c-0.26,0.624-0.39,1.359-0.39,2.208v7.896h-0.987V14.246z"/>
</g>
<g enable-background="new    ">
	<path fill="#33669A" d="M226.236,17.31h0.078c0.104-0.328,0.277-0.692,0.52-1.091c0.242-0.397,0.562-0.766,0.961-1.104
		s0.879-0.619,1.441-0.844c0.562-0.226,1.207-0.338,1.936-0.338c1.021,0,1.908,0.19,2.662,0.571
		c0.752,0.381,1.376,0.892,1.869,1.532c0.494,0.641,0.861,1.386,1.104,2.233c0.242,0.849,0.364,1.74,0.364,2.676
		c0,1.021-0.122,1.956-0.364,2.805c-0.243,0.849-0.612,1.58-1.107,2.194c-0.494,0.615-1.119,1.096-1.874,1.441
		c-0.755,0.347-1.644,0.52-2.668,0.52c-1.111,0-2.101-0.242-2.968-0.728c-0.868-0.484-1.502-1.272-1.9-2.363h-0.052l-0.001,7.559
		h-0.961V14.246h0.961V17.31z M231.158,27.049c0.867,0,1.619-0.164,2.252-0.493c0.634-0.328,1.154-0.771,1.562-1.324
		s0.712-1.199,0.912-1.936c0.199-0.735,0.299-1.519,0.299-2.35c0-0.762-0.096-1.511-0.286-2.247
		c-0.191-0.735-0.486-1.394-0.886-1.974c-0.398-0.58-0.916-1.048-1.549-1.402c-0.635-0.355-1.402-0.533-2.305-0.533
		c-0.885,0-1.641,0.174-2.266,0.52c-0.625,0.347-1.133,0.806-1.523,1.377s-0.673,1.225-0.847,1.961
		c-0.173,0.736-0.26,1.502-0.26,2.299c0,0.796,0.077,1.562,0.233,2.298c0.156,0.736,0.422,1.386,0.795,1.948s0.877,1.013,1.51,1.351
		C229.436,26.881,230.221,27.049,231.158,27.049z"/>
	<path fill="#33669A" d="M239.846,21.05v0.156c0,0.778,0.104,1.523,0.312,2.233s0.516,1.333,0.925,1.87
		c0.407,0.536,0.92,0.961,1.536,1.272s1.332,0.467,2.148,0.467c1.337,0,2.396-0.351,3.178-1.052s1.318-1.675,1.614-2.922h0.987
		c-0.295,1.559-0.932,2.754-1.91,3.585c-0.978,0.831-2.271,1.246-3.883,1.246c-0.986,0-1.848-0.178-2.584-0.532
		s-1.35-0.84-1.844-1.454c-0.493-0.615-0.861-1.342-1.104-2.182s-0.363-1.744-0.363-2.715c0-0.935,0.125-1.831,0.376-2.688
		c0.251-0.857,0.628-1.61,1.13-2.26s1.13-1.169,1.883-1.559c0.754-0.39,1.641-0.584,2.662-0.584c0.936,0,1.762,0.173,2.48,0.52
		s1.32,0.817,1.805,1.415s0.854,1.29,1.104,2.078s0.376,1.632,0.376,2.532c0,0.087-0.004,0.187-0.013,0.299
		s-0.013,0.203-0.013,0.272H239.846z M249.664,20.193c-0.035-0.727-0.156-1.415-0.365-2.064s-0.517-1.221-0.924-1.714
		c-0.408-0.494-0.903-0.888-1.484-1.182c-0.582-0.295-1.246-0.442-1.992-0.442c-0.799,0-1.502,0.152-2.109,0.455
		c-0.608,0.303-1.121,0.701-1.537,1.194c-0.416,0.494-0.738,1.069-0.963,1.728c-0.227,0.658-0.365,1.333-0.417,2.025H249.664z"/>
</g>
<g enable-background="new    ">
	<path fill="#33669A" d="M257.871,15.103h-2.91v9.323c0,0.537,0.061,0.961,0.183,1.273c0.12,0.312,0.308,0.55,0.558,0.714
		c0.252,0.165,0.555,0.264,0.91,0.299c0.354,0.034,0.766,0.043,1.233,0.025v0.857c-0.503,0.034-0.991,0.03-1.468-0.013
		s-0.896-0.173-1.26-0.39s-0.653-0.541-0.869-0.975c-0.217-0.433-0.309-1.029-0.273-1.792v-9.323h-2.467v-0.857h2.467V10.09h0.986
		v4.155h2.91V15.103z"/>
</g>
<g enable-background="new    ">
	<path fill="#33669A" d="M259.688,21.05v0.156c0,0.778,0.104,1.523,0.312,2.233c0.208,0.71,0.516,1.333,0.924,1.87
		c0.408,0.536,0.92,0.961,1.537,1.272c0.615,0.312,1.332,0.467,2.148,0.467c1.336,0,2.396-0.351,3.177-1.052
		s1.319-1.675,1.614-2.922h0.987c-0.294,1.559-0.931,2.754-1.909,3.585s-2.272,1.246-3.883,1.246c-0.986,0-1.848-0.178-2.584-0.532
		s-1.351-0.84-1.844-1.454c-0.494-0.615-0.861-1.342-1.104-2.182c-0.243-0.84-0.364-1.744-0.364-2.715
		c0-0.935,0.126-1.831,0.376-2.688c0.252-0.857,0.628-1.61,1.131-2.26c0.502-0.649,1.129-1.169,1.883-1.559
		c0.753-0.39,1.641-0.584,2.662-0.584c0.935,0,1.762,0.173,2.48,0.52c0.718,0.347,1.32,0.817,1.805,1.415s0.853,1.29,1.104,2.078
		s0.377,1.632,0.377,2.532c0,0.087-0.004,0.187-0.014,0.299c-0.008,0.112-0.012,0.203-0.012,0.272H259.688z M269.505,20.193
		c-0.035-0.727-0.156-1.415-0.364-2.064c-0.209-0.649-0.518-1.221-0.925-1.714c-0.408-0.494-0.903-0.888-1.484-1.182
		c-0.582-0.295-1.246-0.442-1.992-0.442c-0.799,0-1.502,0.152-2.109,0.455c-0.608,0.303-1.12,0.701-1.536,1.194
		c-0.417,0.494-0.738,1.069-0.964,1.728s-0.364,1.333-0.417,2.025H269.505z"/>
</g>
<g enable-background="new    ">
	<path fill="#33669A" d="M273.322,14.246h0.987v2.856h0.052c0.173-0.502,0.42-0.947,0.74-1.337s0.692-0.723,1.117-1
		c0.424-0.277,0.887-0.484,1.389-0.623s1.014-0.208,1.533-0.208c0.779,0,1.441,0.095,1.986,0.285
		c0.546,0.191,0.991,0.441,1.338,0.754c0.346,0.312,0.619,0.662,0.818,1.052s0.342,0.783,0.428,1.182
		c0.087,0.398,0.139,0.783,0.156,1.155c0.018,0.373,0.025,0.697,0.025,0.975v8.259h-0.986v-8.441c0-0.328-0.025-0.744-0.078-1.246
		c-0.052-0.502-0.203-0.982-0.454-1.441s-0.632-0.853-1.144-1.182c-0.51-0.329-1.216-0.494-2.116-0.494
		c-0.763,0-1.438,0.14-2.026,0.416c-0.588,0.277-1.09,0.662-1.506,1.155c-0.416,0.494-0.731,1.083-0.947,1.767
		c-0.217,0.685-0.325,1.433-0.325,2.246v7.221h-0.987V14.246z"/>
</g>
<g enable-background="new    ">
	<path fill="#33669A" d="M296.854,18.375c-0.053-0.589-0.205-1.108-0.455-1.559c-0.252-0.45-0.576-0.822-0.975-1.117
		c-0.398-0.294-0.861-0.52-1.389-0.675c-0.529-0.156-1.096-0.234-1.701-0.234c-0.832,0-1.567,0.169-2.208,0.507
		s-1.178,0.788-1.61,1.351c-0.434,0.562-0.762,1.204-0.986,1.922c-0.226,0.719-0.338,1.459-0.338,2.221
		c0,0.9,0.104,1.731,0.312,2.493c0.208,0.763,0.528,1.425,0.961,1.987s0.97,1,1.61,1.312s1.394,0.467,2.26,0.467
		c0.623,0,1.198-0.104,1.727-0.312c0.528-0.207,0.996-0.493,1.402-0.856c0.407-0.364,0.74-0.801,1-1.312s0.434-1.069,0.52-1.676
		h0.987c-0.104,0.797-0.321,1.507-0.649,2.13c-0.329,0.623-0.744,1.147-1.246,1.571c-0.503,0.425-1.074,0.749-1.715,0.974
		c-0.641,0.226-1.316,0.338-2.025,0.338c-1.092,0-2.021-0.194-2.793-0.584c-0.77-0.39-1.402-0.913-1.896-1.571
		s-0.856-1.416-1.091-2.272c-0.233-0.857-0.351-1.754-0.351-2.688s0.134-1.818,0.403-2.649c0.268-0.831,0.662-1.558,1.182-2.182
		c0.52-0.623,1.159-1.116,1.922-1.48c0.762-0.363,1.636-0.545,2.623-0.545c0.727,0,1.406,0.091,2.039,0.272
		c0.631,0.182,1.194,0.454,1.688,0.818c0.494,0.363,0.896,0.827,1.208,1.39s0.502,1.216,0.571,1.961H296.854z"/>
</g>
<g enable-background="new    ">
	<path fill="#33669A" d="M299.19,14.246h1.169l4.961,12.181l4.57-12.181h1.117l-5.714,14.778c-0.277,0.657-0.532,1.225-0.767,1.701
		c-0.233,0.476-0.498,0.826-0.792,1.052c-0.347,0.276-0.757,0.445-1.233,0.506s-1.104,0.092-1.883,0.092v-0.857
		c0.709,0,1.264-0.057,1.662-0.169s0.77-0.342,1.117-0.688c0.189-0.19,0.389-0.541,0.597-1.052s0.468-1.208,0.779-2.091
		L299.19,14.246z"/>
</g>
<g>
	<path fill="#1C3664" d="M35.083,15.391c-2.741,5.965-10.308,9.705-16.131,5.401c-5.002-3.695-5.777-11.777-0.27-15.44
		c2.115-1.406,4.463-1.289,6.364-0.293V0H12.29v12.29H3.494c-0.242,1.744-0.212,3.534,0.146,5.318
		c0.533,2.651,1.614,5.169,3.1,7.437h5.549v5.933c1.544,1.172,3.223,2.155,4.989,2.903c2.507,1.062,5.127,1.688,7.767,1.889V25.044
		h12.29V12.29h-1.283C35.863,13.342,35.546,14.383,35.083,15.391z"/>
	<path fill="#1C3664" d="M24.713,6.316c-2.667-1.02-5.648-0.304-7.551,1.873c-2.493,2.852-2.452,6.618,0.078,9.458
		c3.965,4.452,10.695,4.455,14.912,0.31c1.572-1.545,2.83-3.516,3.396-5.667h-6.939c-0.135,0.559-0.355,1.12-0.675,1.673
		c-1.536,2.655-5.82,3.895-7.588,0.677c-1.152-2.095-0.861-4.987,1.348-6.235c0.011-0.006,0.373,1.345,0,1.556
		c-1.06,0.599-2.194,1.822-1.257,3.18c0.438,0.635,0.98,1.231,1.717,1.526c1.363,0.546,2.925,0.494,4.131-0.431
		c0.685-0.525,1.259-1.198,1.606-1.945h-2.845V6.464C24.936,6.413,24.827,6.36,24.713,6.316z"/>
	<path fill="#1C3664" d="M12.29,32.548v4.787h12.756v-0.026C20.474,36.971,16.015,35.371,12.29,32.548z"/>
	<path fill="#1C3664" d="M3.042,13.413c0.022-0.377,0.058-0.751,0.099-1.124H0v12.755h5.781C3.824,21.529,2.793,17.541,3.042,13.413
		z"/>
</g>
</svg>
